<mxfile host="Electron" modified="2020-12-14T11:00:48.949Z" agent="5.0 (Windows NT 10.0; Win64; x64) AppleWebKit/537.36 (KHTML, like Gecko) draw.io/13.5.1 Chrome/83.0.4103.122 Electron/9.1.1 Safari/537.36" etag="hu-cFJCHgozbZ4WH3HSO" compressed="false" version="13.5.1" type="device">
  <diagram id="1IEk_Nb3fTFsxIXIZDjR" name="Page-1">
    <mxGraphModel dx="1585" dy="1118" grid="0" gridSize="10" guides="1" tooltips="1" connect="1" arrows="1" fold="1" page="0" pageScale="1" pageWidth="850" pageHeight="1100" math="1" shadow="0">
      <root>
        <mxCell id="0" />
        <mxCell id="1" parent="0" />
        <mxCell id="MZnsxzSixxqM9Ytszqh4-1" value="RabbitMQ (inter-component communication)" style="rounded=0;whiteSpace=wrap;html=1;fillColor=#d5e8d4;strokeColor=#82b366;" vertex="1" parent="1">
          <mxGeometry x="-69" y="38" width="178" height="40" as="geometry" />
        </mxCell>
        <mxCell id="MZnsxzSixxqM9Ytszqh4-2" value="Requirements" style="rounded=0;whiteSpace=wrap;html=1;" vertex="1" parent="1">
          <mxGeometry x="-118" y="411" width="178" height="40" as="geometry" />
        </mxCell>
        <mxCell id="MZnsxzSixxqM9Ytszqh4-3" value="Kalman Filter" style="rounded=0;whiteSpace=wrap;html=1;" vertex="1" parent="1">
          <mxGeometry x="204" y="168" width="115" height="40" as="geometry" />
        </mxCell>
        <mxCell id="MZnsxzSixxqM9Ytszqh4-5" value="What if Co-simulation in Maestro V2" style="rounded=0;whiteSpace=wrap;html=1;" vertex="1" parent="1">
          <mxGeometry x="480" y="239" width="98" height="64" as="geometry" />
        </mxCell>
        <mxCell id="MZnsxzSixxqM9Ytszqh4-6" value="Physital Twin" style="rounded=0;whiteSpace=wrap;html=1;" vertex="1" parent="1">
          <mxGeometry x="-40" y="257" width="115" height="40" as="geometry" />
        </mxCell>
        <mxCell id="MZnsxzSixxqM9Ytszqh4-7" value="" style="endArrow=classic;html=1;dashed=1;" edge="1" parent="1" source="MZnsxzSixxqM9Ytszqh4-6" target="MZnsxzSixxqM9Ytszqh4-1">
          <mxGeometry width="50" height="50" relative="1" as="geometry">
            <mxPoint x="119" y="316" as="sourcePoint" />
            <mxPoint x="169" y="266" as="targetPoint" />
          </mxGeometry>
        </mxCell>
        <mxCell id="MZnsxzSixxqM9Ytszqh4-8" value="" style="endArrow=classic;html=1;dashed=1;" edge="1" parent="1" source="MZnsxzSixxqM9Ytszqh4-1" target="MZnsxzSixxqM9Ytszqh4-3">
          <mxGeometry width="50" height="50" relative="1" as="geometry">
            <mxPoint x="34.89130434782601" y="267" as="sourcePoint" />
            <mxPoint x="96.60869565217399" y="100" as="targetPoint" />
          </mxGeometry>
        </mxCell>
        <mxCell id="MZnsxzSixxqM9Ytszqh4-12" style="edgeStyle=orthogonalEdgeStyle;rounded=0;orthogonalLoop=1;jettySize=auto;html=1;" edge="1" parent="1" source="MZnsxzSixxqM9Ytszqh4-9" target="MZnsxzSixxqM9Ytszqh4-11">
          <mxGeometry relative="1" as="geometry" />
        </mxCell>
        <mxCell id="MZnsxzSixxqM9Ytszqh4-9" value="Data Recorder" style="rounded=0;whiteSpace=wrap;html=1;" vertex="1" parent="1">
          <mxGeometry x="-17" y="-60" width="115" height="40" as="geometry" />
        </mxCell>
        <mxCell id="MZnsxzSixxqM9Ytszqh4-10" value="" style="endArrow=classic;html=1;dashed=1;" edge="1" parent="1" source="MZnsxzSixxqM9Ytszqh4-1" target="MZnsxzSixxqM9Ytszqh4-9">
          <mxGeometry width="50" height="50" relative="1" as="geometry">
            <mxPoint x="80.84210526315792" y="88" as="sourcePoint" />
            <mxPoint x="220.65789473684208" y="143" as="targetPoint" />
          </mxGeometry>
        </mxCell>
        <mxCell id="MZnsxzSixxqM9Ytszqh4-11" value="DB" style="rounded=0;whiteSpace=wrap;html=1;fillColor=#fff2cc;strokeColor=#d6b656;" vertex="1" parent="1">
          <mxGeometry x="119" y="-15" width="115" height="40" as="geometry" />
        </mxCell>
        <mxCell id="MZnsxzSixxqM9Ytszqh4-13" value="State" style="rounded=0;whiteSpace=wrap;html=1;" vertex="1" parent="1">
          <mxGeometry x="692" y="362" width="47" height="40" as="geometry" />
        </mxCell>
        <mxCell id="MZnsxzSixxqM9Ytszqh4-14" value="Cosim Scenario" style="rounded=0;whiteSpace=wrap;html=1;" vertex="1" parent="1">
          <mxGeometry x="630" y="195" width="117" height="40" as="geometry" />
        </mxCell>
        <mxCell id="MZnsxzSixxqM9Ytszqh4-15" value="Parameters" style="rounded=0;whiteSpace=wrap;html=1;" vertex="1" parent="1">
          <mxGeometry x="630" y="272" width="105" height="40" as="geometry" />
        </mxCell>
        <mxCell id="MZnsxzSixxqM9Ytszqh4-18" value="RabbitMQ (inter-component communication)" style="rounded=0;whiteSpace=wrap;html=1;fillColor=#d5e8d4;strokeColor=#82b366;" vertex="1" parent="1">
          <mxGeometry x="469" y="70" width="178" height="40" as="geometry" />
        </mxCell>
        <mxCell id="MZnsxzSixxqM9Ytszqh4-19" value="" style="endArrow=classic;html=1;dashed=1;" edge="1" parent="1" source="MZnsxzSixxqM9Ytszqh4-21" target="MZnsxzSixxqM9Ytszqh4-18">
          <mxGeometry width="50" height="50" relative="1" as="geometry">
            <mxPoint x="85.46511627906966" y="88" as="sourcePoint" />
            <mxPoint x="213.03488372093034" y="134" as="targetPoint" />
          </mxGeometry>
        </mxCell>
        <mxCell id="MZnsxzSixxqM9Ytszqh4-21" value="State" style="shape=parallelogram;perimeter=parallelogramPerimeter;whiteSpace=wrap;html=1;" vertex="1" parent="1">
          <mxGeometry x="354" y="103" width="68" height="40" as="geometry" />
        </mxCell>
        <mxCell id="MZnsxzSixxqM9Ytszqh4-24" value="" style="endArrow=classic;html=1;dashed=1;" edge="1" parent="1" source="MZnsxzSixxqM9Ytszqh4-3" target="MZnsxzSixxqM9Ytszqh4-21">
          <mxGeometry width="50" height="50" relative="1" as="geometry">
            <mxPoint x="316" y="133.6327212020035" as="sourcePoint" />
            <mxPoint x="469" y="106.04674457429041" as="targetPoint" />
          </mxGeometry>
        </mxCell>
        <mxCell id="MZnsxzSixxqM9Ytszqh4-25" value="" style="endArrow=classic;html=1;dashed=1;" edge="1" parent="1" source="MZnsxzSixxqM9Ytszqh4-26" target="MZnsxzSixxqM9Ytszqh4-5">
          <mxGeometry width="50" height="50" relative="1" as="geometry">
            <mxPoint x="85.46511627906966" y="88" as="sourcePoint" />
            <mxPoint x="213.03488372093034" y="134" as="targetPoint" />
          </mxGeometry>
        </mxCell>
        <mxCell id="MZnsxzSixxqM9Ytszqh4-26" value="State" style="shape=parallelogram;perimeter=parallelogramPerimeter;whiteSpace=wrap;html=1;" vertex="1" parent="1">
          <mxGeometry x="498" y="143" width="68" height="40" as="geometry" />
        </mxCell>
        <mxCell id="MZnsxzSixxqM9Ytszqh4-27" value="" style="endArrow=classic;html=1;dashed=1;" edge="1" parent="1" source="MZnsxzSixxqM9Ytszqh4-18" target="MZnsxzSixxqM9Ytszqh4-26">
          <mxGeometry width="50" height="50" relative="1" as="geometry">
            <mxPoint x="552.0828402366865" y="110" as="sourcePoint" />
            <mxPoint x="517.4674556213017" y="227" as="targetPoint" />
          </mxGeometry>
        </mxCell>
        <mxCell id="MZnsxzSixxqM9Ytszqh4-28" value="" style="endArrow=classic;html=1;dashed=1;" edge="1" parent="1" source="MZnsxzSixxqM9Ytszqh4-14" target="MZnsxzSixxqM9Ytszqh4-5">
          <mxGeometry width="50" height="50" relative="1" as="geometry">
            <mxPoint x="427.1220556745179" y="127.34689507494647" as="sourcePoint" />
            <mxPoint x="406" y="216" as="targetPoint" />
          </mxGeometry>
        </mxCell>
        <mxCell id="MZnsxzSixxqM9Ytszqh4-29" value="Plant" style="shape=parallelogram;perimeter=parallelogramPerimeter;whiteSpace=wrap;html=1;" vertex="1" parent="1">
          <mxGeometry x="185" y="272" width="68" height="40" as="geometry" />
        </mxCell>
        <mxCell id="MZnsxzSixxqM9Ytszqh4-30" value="Parameters" style="shape=parallelogram;perimeter=parallelogramPerimeter;whiteSpace=wrap;html=1;" vertex="1" parent="1">
          <mxGeometry x="337" y="275" width="111" height="40" as="geometry" />
        </mxCell>
        <mxCell id="MZnsxzSixxqM9Ytszqh4-31" value="" style="endArrow=classic;html=1;dashed=1;" edge="1" parent="1" source="MZnsxzSixxqM9Ytszqh4-30" target="MZnsxzSixxqM9Ytszqh4-3">
          <mxGeometry width="50" height="50" relative="1" as="geometry">
            <mxPoint x="310.4230769230769" y="178.0000000000001" as="sourcePoint" />
            <mxPoint x="365.0421455938697" y="149.93486590038322" as="targetPoint" />
          </mxGeometry>
        </mxCell>
        <mxCell id="MZnsxzSixxqM9Ytszqh4-32" value="" style="endArrow=classic;html=1;dashed=1;" edge="1" parent="1" source="MZnsxzSixxqM9Ytszqh4-29" target="MZnsxzSixxqM9Ytszqh4-3">
          <mxGeometry width="50" height="50" relative="1" as="geometry">
            <mxPoint x="319.47196261682257" y="285" as="sourcePoint" />
            <mxPoint x="282.52803738317743" y="218.0000000000001" as="targetPoint" />
          </mxGeometry>
        </mxCell>
        <mxCell id="MZnsxzSixxqM9Ytszqh4-33" value="Calibrator" style="rounded=0;whiteSpace=wrap;html=1;" vertex="1" parent="1">
          <mxGeometry x="212" y="371" width="115" height="40" as="geometry" />
        </mxCell>
        <mxCell id="MZnsxzSixxqM9Ytszqh4-34" value="" style="endArrow=classic;html=1;dashed=1;" edge="1" parent="1" source="MZnsxzSixxqM9Ytszqh4-29" target="MZnsxzSixxqM9Ytszqh4-33">
          <mxGeometry width="50" height="50" relative="1" as="geometry">
            <mxPoint x="262.24766355140196" y="218.0000000000001" as="sourcePoint" />
            <mxPoint x="231.25233644859804" y="285" as="targetPoint" />
          </mxGeometry>
        </mxCell>
        <mxCell id="MZnsxzSixxqM9Ytszqh4-35" value="" style="endArrow=classic;html=1;dashed=1;" edge="1" parent="1" source="MZnsxzSixxqM9Ytszqh4-33" target="MZnsxzSixxqM9Ytszqh4-30">
          <mxGeometry width="50" height="50" relative="1" as="geometry">
            <mxPoint x="262.33333333333326" y="393" as="sourcePoint" />
            <mxPoint x="231.16666666666674" y="325" as="targetPoint" />
          </mxGeometry>
        </mxCell>
        <mxCell id="MZnsxzSixxqM9Ytszqh4-36" value="" style="endArrow=classic;html=1;dashed=1;" edge="1" parent="1" source="MZnsxzSixxqM9Ytszqh4-11" target="MZnsxzSixxqM9Ytszqh4-33">
          <mxGeometry width="50" height="50" relative="1" as="geometry">
            <mxPoint x="231.16666666666674" y="325" as="sourcePoint" />
            <mxPoint x="262.33333333333326" y="393" as="targetPoint" />
            <Array as="points">
              <mxPoint x="176" y="391" />
            </Array>
          </mxGeometry>
        </mxCell>
        <mxCell id="MZnsxzSixxqM9Ytszqh4-37" value="Calibration Scenario" style="shape=parallelogram;perimeter=parallelogramPerimeter;whiteSpace=wrap;html=1;" vertex="1" parent="1">
          <mxGeometry x="70" y="519" width="154" height="38" as="geometry" />
        </mxCell>
        <mxCell id="MZnsxzSixxqM9Ytszqh4-38" value="What if simulations in Python" style="rounded=0;whiteSpace=wrap;html=1;" vertex="1" parent="1">
          <mxGeometry x="450" y="385" width="98" height="64" as="geometry" />
        </mxCell>
        <mxCell id="MZnsxzSixxqM9Ytszqh4-40" value="" style="endArrow=classic;html=1;dashed=1;" edge="1" parent="1" source="MZnsxzSixxqM9Ytszqh4-30" target="MZnsxzSixxqM9Ytszqh4-38">
          <mxGeometry width="50" height="50" relative="1" as="geometry">
            <mxPoint x="264.5543492309682" y="315.7225022618586" as="sourcePoint" />
            <mxPoint x="460" y="404.6940298507461" as="targetPoint" />
          </mxGeometry>
        </mxCell>
        <mxCell id="MZnsxzSixxqM9Ytszqh4-41" value="Trace" style="shape=parallelogram;perimeter=parallelogramPerimeter;whiteSpace=wrap;html=1;" vertex="1" parent="1">
          <mxGeometry x="556" y="479" width="111" height="40" as="geometry" />
        </mxCell>
        <mxCell id="MZnsxzSixxqM9Ytszqh4-42" value="" style="endArrow=classic;html=1;dashed=1;" edge="1" parent="1" source="MZnsxzSixxqM9Ytszqh4-38" target="MZnsxzSixxqM9Ytszqh4-41">
          <mxGeometry width="50" height="50" relative="1" as="geometry">
            <mxPoint x="404.9098360655737" y="325" as="sourcePoint" />
            <mxPoint x="476.344262295082" y="395" as="targetPoint" />
          </mxGeometry>
        </mxCell>
        <mxCell id="MZnsxzSixxqM9Ytszqh4-43" value="Model2" style="shape=parallelogram;perimeter=parallelogramPerimeter;whiteSpace=wrap;html=1;" vertex="1" parent="1">
          <mxGeometry x="430" y="433" width="68" height="40" as="geometry" />
        </mxCell>
        <mxCell id="MZnsxzSixxqM9Ytszqh4-44" value="" style="endArrow=classic;html=1;dashed=1;" edge="1" parent="1" source="MZnsxzSixxqM9Ytszqh4-21" target="MZnsxzSixxqM9Ytszqh4-38">
          <mxGeometry width="50" height="50" relative="1" as="geometry">
            <mxPoint x="404.9098360655737" y="325" as="sourcePoint" />
            <mxPoint x="476.344262295082" y="395" as="targetPoint" />
          </mxGeometry>
        </mxCell>
        <mxCell id="MZnsxzSixxqM9Ytszqh4-45" value="What if simulations in Python" style="rounded=0;whiteSpace=wrap;html=1;" vertex="1" parent="1">
          <mxGeometry x="158" y="547" width="98" height="64" as="geometry" />
        </mxCell>
        <mxCell id="MZnsxzSixxqM9Ytszqh4-46" value="Model3" style="shape=parallelogram;perimeter=parallelogramPerimeter;whiteSpace=wrap;html=1;" vertex="1" parent="1">
          <mxGeometry x="182" y="595" width="68" height="40" as="geometry" />
        </mxCell>
        <mxCell id="MZnsxzSixxqM9Ytszqh4-48" value="Kalman Filter - Model 3" style="rounded=0;whiteSpace=wrap;html=1;" vertex="1" parent="1">
          <mxGeometry x="53" y="476" width="115" height="40" as="geometry" />
        </mxCell>
        <mxCell id="MZnsxzSixxqM9Ytszqh4-50" value="What if simulations in Python" style="rounded=0;whiteSpace=wrap;html=1;" vertex="1" parent="1">
          <mxGeometry x="321" y="460" width="98" height="64" as="geometry" />
        </mxCell>
        <mxCell id="MZnsxzSixxqM9Ytszqh4-51" value="" style="endArrow=classic;html=1;dashed=1;" edge="1" parent="1" source="MZnsxzSixxqM9Ytszqh4-29" target="MZnsxzSixxqM9Ytszqh4-50">
          <mxGeometry width="50" height="50" relative="1" as="geometry">
            <mxPoint x="248.77777777777783" y="322" as="sourcePoint" />
            <mxPoint x="271.7222222222222" y="381" as="targetPoint" />
          </mxGeometry>
        </mxCell>
        <mxCell id="MZnsxzSixxqM9Ytszqh4-52" value="CtrlModel" style="shape=parallelogram;perimeter=parallelogramPerimeter;whiteSpace=wrap;html=1;" vertex="1" parent="1">
          <mxGeometry x="260" y="272" width="68" height="40" as="geometry" />
        </mxCell>
      </root>
    </mxGraphModel>
  </diagram>
</mxfile>
